<svg width="34" height="34" viewBox="0 0 34 34" fill="none" class="icon icon-cart-empty" xmlns="http://www.w3.org/2000/svg">
<g clip-path="url(#clip0_0_120)">
<path d="M1.41667 1.41797C1.04094 1.41797 0.680609 1.56722 0.414932 1.8329C0.149256 2.09858 0 2.45891 0 2.83464C0 3.21036 0.149256 3.57069 0.414932 3.83637C0.680609 4.10205 1.04094 4.2513 1.41667 4.2513H3.93833C4.14425 4.25166 4.34486 4.31667 4.51186 4.43715C4.67886 4.55763 4.80381 4.7275 4.86908 4.9228L9.53983 18.9379C9.74808 19.5612 9.77358 20.2299 9.61492 20.8674L9.231 22.4073C8.66575 24.6655 10.4238 26.918 12.75 26.918H29.75C30.1257 26.918 30.4861 26.7687 30.7517 26.503C31.0174 26.2374 31.1667 25.877 31.1667 25.5013C31.1667 25.1256 31.0174 24.7652 30.7517 24.4996C30.4861 24.2339 30.1257 24.0846 29.75 24.0846H12.75C12.1975 24.0846 11.8433 23.6313 11.9779 23.0972L12.2683 21.9384C12.3173 21.7424 12.4303 21.5683 12.5894 21.4438C12.7485 21.3194 12.9446 21.2516 13.1467 21.2513H28.3333C28.631 21.2517 28.9213 21.1583 29.1629 20.9843C29.4044 20.8104 29.5851 20.5647 29.6792 20.2823L33.4546 8.94897C33.5255 8.736 33.5448 8.50922 33.5109 8.28732C33.477 8.06542 33.3909 7.85476 33.2596 7.67269C33.1283 7.49062 32.9556 7.34235 32.7558 7.24011C32.5559 7.13787 32.3346 7.08458 32.1102 7.08464H9.28625C9.08009 7.08457 8.87916 7.01971 8.71188 6.8992C8.5446 6.7787 8.41944 6.60866 8.35408 6.41314L7.01108 2.38697C6.91709 2.10476 6.73665 1.8593 6.49535 1.68538C6.25404 1.51145 5.96412 1.4179 5.66667 1.41797H1.41667ZM11.3333 28.3346C10.5819 28.3346 9.86122 28.6331 9.32986 29.1645C8.79851 29.6959 8.5 30.4165 8.5 31.168C8.5 31.9194 8.79851 32.6401 9.32986 33.1714C9.86122 33.7028 10.5819 34.0013 11.3333 34.0013C12.0848 34.0013 12.8054 33.7028 13.3368 33.1714C13.8682 32.6401 14.1667 31.9194 14.1667 31.168C14.1667 30.4165 13.8682 29.6959 13.3368 29.1645C12.8054 28.6331 12.0848 28.3346 11.3333 28.3346ZM28.3333 28.3346C27.5819 28.3346 26.8612 28.6331 26.3299 29.1645C25.7985 29.6959 25.5 30.4165 25.5 31.168C25.5 31.9194 25.7985 32.6401 26.3299 33.1714C26.8612 33.7028 27.5819 34.0013 28.3333 34.0013C29.0848 34.0013 29.8055 33.7028 30.3368 33.1714C30.8682 32.6401 31.1667 31.9194 31.1667 31.168C31.1667 30.4165 30.8682 29.6959 30.3368 29.1645C29.8055 28.6331 29.0848 28.3346 28.3333 28.3346Z" fill="black"/>
</g>
<defs>
<clipPath id="clip0_0_120">
<rect width="34" height="34" fill="white"/>
</clipPath>
</defs>
</svg>